<svg width="14" height="15" viewBox="0 0 14 15" fill="none" xmlns="http://www.w3.org/2000/svg">
<path d="M0 0.225586C0.519531 0.348633 0.984375 0.444336 1.39453 0.512695C1.81836 0.567383 2.17383 0.608398 2.46094 0.635742C2.80273 0.676758 3.10352 0.69043 3.36328 0.676758C3.69141 0.663086 4.10156 0.615234 4.59375 0.533203C5.08594 0.451172 5.60547 0.369141 6.15234 0.287109C6.69922 0.205078 7.23926 0.136719 7.77246 0.0820312C8.30566 0.0273438 8.77051 0.0205078 9.16699 0.0615234C9.56348 0.102539 9.98047 0.198242 10.418 0.348633C10.8555 0.485352 11.2656 0.676758 11.6484 0.922852C12.0312 1.15527 12.3594 1.44238 12.6328 1.78418C12.9199 2.12598 13.0977 2.52246 13.166 2.97363C13.2344 3.41113 13.1934 3.88281 13.043 4.38867C12.8926 4.88086 12.6533 5.36621 12.3252 5.84473C11.9971 6.30957 11.5869 6.74023 11.0947 7.13672C10.6025 7.5332 10.0557 7.85449 9.4541 8.10059C8.97559 8.27832 8.45605 8.41504 7.89551 8.51074C7.41699 8.59277 6.85645 8.64746 6.21387 8.6748C5.58496 8.68848 4.91504 8.62012 4.2041 8.46973C4.1084 8.86621 4.05371 9.23535 4.04004 9.57715C4.04004 9.90527 4.05371 10.1992 4.08105 10.459C4.12207 10.7598 4.17676 11.0332 4.24512 11.2793C4.32715 11.5254 4.42969 11.8125 4.55273 12.1406C4.66211 12.4141 4.78516 12.749 4.92188 13.1455C5.07227 13.5283 5.25 13.959 5.45508 14.4375C5.20898 14.4375 4.96973 14.4443 4.7373 14.458C4.50488 14.458 4.29297 14.4648 4.10156 14.4785C3.88281 14.4922 3.67773 14.5059 3.48633 14.5195C3.26758 14.5332 3.02148 14.5605 2.74805 14.6016C2.51562 14.6289 2.22168 14.6699 1.86621 14.7246C1.52441 14.7793 1.13477 14.8477 0.697266 14.9297C0.984375 14.5195 1.20996 14.1436 1.37402 13.8018C1.55176 13.4463 1.68164 13.1387 1.76367 12.8789C1.85938 12.5781 1.9209 12.3047 1.94824 12.0586C1.96191 11.8535 1.96191 11.4912 1.94824 10.9717C1.94824 10.4521 1.94141 9.85059 1.92773 9.16699C1.91406 8.4834 1.89355 7.76562 1.86621 7.01367C1.83887 6.26172 1.80469 5.55762 1.76367 4.90137C1.72266 4.23145 1.6748 3.65723 1.62012 3.17871C1.5791 2.7002 1.53809 2.38574 1.49707 2.23535C1.44238 2.05762 1.34668 1.86621 1.20996 1.66113C1.10059 1.4834 0.943359 1.27832 0.738281 1.0459C0.546875 0.799805 0.300781 0.526367 0 0.225586ZM4.24512 4.26562C4.23145 4.40234 4.22461 4.5459 4.22461 4.69629C4.22461 4.9834 4.24512 5.35254 4.28613 5.80371C4.38184 6.03613 4.49805 6.22754 4.63477 6.37793C4.78516 6.52832 4.94238 6.64453 5.10645 6.72656C5.28418 6.80859 5.46191 6.86328 5.63965 6.89062C5.81738 6.91797 5.99512 6.93164 6.17285 6.93164C6.58301 6.91797 7.01367 6.82227 7.46484 6.64453C8.06641 6.38477 8.49023 6.01562 8.73633 5.53711C8.98242 5.05859 9.1123 4.56641 9.12598 4.06055C9.13965 3.55469 9.05078 3.08984 8.85938 2.66602C8.68164 2.24219 8.46289 1.95508 8.20312 1.80469C7.98438 1.70898 7.7041 1.66797 7.3623 1.68164C7.06152 1.69531 6.68555 1.77051 6.23438 1.90723C5.7832 2.04395 5.22949 2.29004 4.57324 2.64551C4.50488 2.8916 4.4502 3.11035 4.40918 3.30176C4.36816 3.49316 4.33398 3.66406 4.30664 3.81445C4.2793 3.97852 4.25879 4.12891 4.24512 4.26562Z" fill="#00FFFF"/>
</svg>
