<svg width="18" height="11" viewBox="0 0 18 11" fill="none" xmlns="http://www.w3.org/2000/svg">
<path d="M0 0.21875C0.346354 0.300781 0.65625 0.364583 0.929688 0.410156C1.21224 0.446615 1.44922 0.473958 1.64062 0.492188C1.86849 0.519531 2.06901 0.528646 2.24219 0.519531C2.46094 0.510417 2.73438 0.478516 3.0625 0.423828C3.39062 0.369141 3.73698 0.314453 4.10156 0.259766C4.46615 0.205078 4.82617 0.159505 5.18164 0.123047C5.53711 0.0865885 5.84701 0.0820312 6.11133 0.109375C6.37565 0.136719 6.65365 0.200521 6.94531 0.300781C7.23698 0.391927 7.51042 0.519531 7.76562 0.683594C8.02083 0.838542 8.23958 1.02995 8.42188 1.25781C8.61328 1.48568 8.73177 1.75 8.77734 2.05078C8.82292 2.34245 8.79557 2.6569 8.69531 2.99414C8.59505 3.32227 8.43555 3.64583 8.2168 3.96484C7.99805 4.27474 7.72461 4.56185 7.39648 4.82617C7.06836 5.09049 6.70378 5.30469 6.30273 5.46875C5.98372 5.58724 5.63737 5.67839 5.26367 5.74219C4.94466 5.79688 4.57096 5.83333 4.14258 5.85156C3.72331 5.86068 3.27669 5.8151 2.80273 5.71484C2.73893 5.97917 2.70247 6.22526 2.69336 6.45312C2.69336 6.67188 2.70247 6.86784 2.7207 7.04102C2.74805 7.24154 2.78451 7.42383 2.83008 7.58789C2.88477 7.75195 2.95312 7.94336 3.03516 8.16211C3.10807 8.3444 3.1901 8.56771 3.28125 8.83203C3.38151 9.08724 3.5 9.37435 3.63672 9.69336C3.47266 9.69336 3.31315 9.69792 3.1582 9.70703C3.00326 9.70703 2.86198 9.71159 2.73438 9.7207C2.58854 9.72982 2.45182 9.73893 2.32422 9.74805C2.17839 9.75716 2.01432 9.77539 1.83203 9.80273C1.67708 9.82096 1.48112 9.84831 1.24414 9.88477C1.01628 9.92122 0.75651 9.9668 0.464844 10.0215C0.65625 9.74805 0.806641 9.4974 0.916016 9.26953C1.03451 9.03255 1.12109 8.82747 1.17578 8.6543C1.23958 8.45378 1.2806 8.27148 1.29883 8.10742C1.30794 7.9707 1.30794 7.72917 1.29883 7.38281C1.29883 7.03646 1.29427 6.63542 1.28516 6.17969C1.27604 5.72396 1.26237 5.24544 1.24414 4.74414C1.22591 4.24284 1.20312 3.77344 1.17578 3.33594C1.14844 2.88932 1.11654 2.50651 1.08008 2.1875C1.05273 1.86849 1.02539 1.65885 0.998047 1.55859C0.961589 1.4401 0.897786 1.3125 0.806641 1.17578C0.733724 1.05729 0.628906 0.920573 0.492188 0.765625C0.364583 0.601562 0.200521 0.419271 0 0.21875ZM2.83008 2.91211C2.82096 3.00326 2.81641 3.09896 2.81641 3.19922C2.81641 3.39062 2.83008 3.63672 2.85742 3.9375C2.92122 4.09245 2.9987 4.22005 3.08984 4.32031C3.1901 4.42057 3.29492 4.49805 3.4043 4.55273C3.52279 4.60742 3.64128 4.64388 3.75977 4.66211C3.87826 4.68034 3.99674 4.68945 4.11523 4.68945C4.38867 4.68034 4.67578 4.61654 4.97656 4.49805C5.3776 4.32487 5.66016 4.07878 5.82422 3.75977C5.98828 3.44076 6.07487 3.11263 6.08398 2.77539C6.0931 2.43815 6.03385 2.12826 5.90625 1.8457C5.78776 1.56315 5.64193 1.37174 5.46875 1.27148C5.32292 1.20768 5.13607 1.18034 4.9082 1.18945C4.70768 1.19857 4.45703 1.2487 4.15625 1.33984C3.85547 1.43099 3.48633 1.59505 3.04883 1.83203C3.00326 1.99609 2.9668 2.14193 2.93945 2.26953C2.91211 2.39714 2.88932 2.51107 2.87109 2.61133C2.85286 2.7207 2.83919 2.82096 2.83008 2.91211ZM17.5137 0C17.3861 0.291667 17.2721 0.546875 17.1719 0.765625C17.0716 0.984375 16.985 1.17122 16.9121 1.32617C16.8301 1.49935 16.7617 1.6543 16.707 1.79102C16.6615 1.89128 16.6022 2.02799 16.5293 2.20117C16.4564 2.35612 16.3652 2.5612 16.2559 2.81641C16.1556 3.0625 16.0234 3.38151 15.8594 3.77344C15.7773 3.4362 15.6771 3.13997 15.5586 2.88477C15.4401 2.62956 15.3125 2.40625 15.1758 2.21484C15.0391 2.02344 14.8932 1.86849 14.7383 1.75C14.5924 1.6224 14.4466 1.51758 14.3008 1.43555C13.9635 1.25326 13.6081 1.15299 13.2344 1.13477C12.7422 1.16211 12.3548 1.24414 12.0723 1.38086C11.7988 1.50846 11.5983 1.65885 11.4707 1.83203C11.3431 1.99609 11.2747 2.16927 11.2656 2.35156C11.2565 2.52474 11.2793 2.67057 11.334 2.78906C11.3796 2.89844 11.5391 3.02604 11.8125 3.17188C12.0951 3.31771 12.4323 3.48633 12.8242 3.67773C13.2253 3.86003 13.6536 4.06966 14.1094 4.30664C14.5651 4.53451 14.9844 4.78971 15.3672 5.07227C15.7591 5.3457 16.0872 5.64648 16.3516 5.97461C16.625 6.29362 16.7754 6.63542 16.8027 7C16.8301 7.46484 16.8255 7.88411 16.7891 8.25781C16.7526 8.63151 16.625 8.95052 16.4062 9.21484C16.1875 9.47917 15.8457 9.6888 15.3809 9.84375C14.9251 9.9987 14.2917 10.0944 13.4805 10.1309C12.6419 10.1673 11.9538 10.1217 11.416 9.99414C10.8783 9.86654 10.4408 9.69336 10.1035 9.47461C9.77539 9.25586 9.5293 9.01432 9.36523 8.75C9.21029 8.48568 9.09635 8.23503 9.02344 7.99805C8.95052 7.75195 8.90039 7.54232 8.87305 7.36914C8.8457 7.18685 8.80013 7.07747 8.73633 7.04102C8.66341 6.99544 8.59049 6.95443 8.51758 6.91797C8.45378 6.88151 8.38542 6.84961 8.3125 6.82227C8.23958 6.78581 8.16667 6.75391 8.09375 6.72656L12.0723 6.08398C11.8444 6.26628 11.6667 6.4349 11.5391 6.58984C11.4206 6.74479 11.3294 6.88151 11.2656 7C11.1927 7.13672 11.1426 7.26432 11.1152 7.38281C11.097 7.51042 11.138 7.66992 11.2383 7.86133C11.3385 8.05273 11.4753 8.23958 11.6484 8.42188C11.8307 8.59505 12.0404 8.74089 12.2773 8.85938C12.5143 8.97786 12.7604 9.02799 13.0156 9.00977C13.3346 8.98242 13.5944 8.90495 13.7949 8.77734C13.9954 8.64062 14.1458 8.47201 14.2461 8.27148C14.3555 8.07096 14.4193 7.85221 14.4375 7.61523C14.4557 7.37826 14.4329 7.14583 14.3691 6.91797C14.3145 6.68099 14.2233 6.46224 14.0957 6.26172C13.9681 6.05208 13.8177 5.87891 13.6445 5.74219C13.4896 5.63281 13.248 5.52799 12.9199 5.42773C12.6009 5.32747 12.2409 5.2181 11.8398 5.09961C11.4479 4.98112 11.0423 4.8444 10.623 4.68945C10.2129 4.53451 9.83919 4.3431 9.50195 4.11523C9.17383 3.88737 8.90951 3.61849 8.70898 3.30859C8.51758 2.9987 8.44466 2.625 8.49023 2.1875C8.52669 1.8138 8.64518 1.50391 8.8457 1.25781C9.05534 1.0026 9.3151 0.802083 9.625 0.65625C9.94401 0.501302 10.2949 0.38737 10.6777 0.314453C11.0697 0.241536 11.4661 0.200521 11.8672 0.191406C12.2773 0.173177 12.6784 0.177734 13.0703 0.205078C13.4714 0.232422 13.8314 0.264323 14.1504 0.300781C14.4694 0.33724 14.7383 0.373698 14.957 0.410156C15.1849 0.4375 15.3262 0.455729 15.3809 0.464844C15.6178 0.483073 15.8548 0.478516 16.0918 0.451172C16.3014 0.432943 16.5293 0.391927 16.7754 0.328125C17.0306 0.255208 17.2767 0.145833 17.5137 0Z" fill="#00FFFF"/>
</svg>
