<svg width="15" height="16" viewBox="0 0 15 16" fill="none" xmlns="http://www.w3.org/2000/svg">
<path d="M0 0.430664C0.4375 0.499023 0.833984 0.560547 1.18945 0.615234C1.54492 0.65625 1.85254 0.69043 2.1123 0.717773C2.41309 0.758789 2.67969 0.792969 2.91211 0.820312C3.19922 0.861328 3.62988 0.813477 4.2041 0.676758C4.77832 0.526367 5.40723 0.389648 6.09082 0.266602C6.78809 0.129883 7.49902 0.0546875 8.22363 0.0410156C8.94824 0.0136719 9.61133 0.143555 10.2129 0.430664C10.8145 0.717773 11.3066 1.00488 11.6895 1.29199C12.0723 1.5791 12.373 1.88672 12.5918 2.21484C12.8242 2.5293 12.9883 2.86426 13.084 3.21973C13.1797 3.5752 13.2344 3.96484 13.248 4.38867C13.2344 5.01758 13.084 5.62598 12.7969 6.21387C12.6738 6.45996 12.5098 6.71973 12.3047 6.99316C12.1133 7.25293 11.874 7.50586 11.5869 7.75195C11.2998 7.99805 10.958 8.23047 10.5615 8.44922C10.1787 8.66797 9.72754 8.85938 9.20801 9.02344C9.71387 9.17383 10.1309 9.35156 10.459 9.55664C10.8008 9.76172 11.0742 9.95312 11.2793 10.1309C11.5254 10.3496 11.71 10.5615 11.833 10.7666C11.9834 11.0537 12.0859 11.2998 12.1406 11.5049C12.1953 11.71 12.2295 11.9082 12.2432 12.0996C12.2705 12.2773 12.3047 12.4619 12.3457 12.6533C12.3867 12.8447 12.4756 13.0635 12.6123 13.3096C12.7217 13.501 12.8516 13.6992 13.002 13.9043C13.1387 14.082 13.2959 14.2734 13.4736 14.4785C13.665 14.6836 13.8975 14.8818 14.1709 15.0732C13.7881 15.0869 13.4326 15.0938 13.1045 15.0938C12.79 15.0938 12.5166 15.0938 12.2842 15.0938C12.0107 15.0938 11.751 15.0869 11.5049 15.0732C11.2588 15.0596 10.9512 15.0527 10.582 15.0527C10.2676 15.0527 9.86426 15.0527 9.37207 15.0527C8.89355 15.0527 8.3125 15.0596 7.62891 15.0732C7.92969 14.8408 8.17578 14.6084 8.36719 14.376C8.55859 14.1436 8.70898 13.9316 8.81836 13.7402C8.94141 13.5215 9.03027 13.3096 9.08496 13.1045C9.15332 12.7354 9.16016 12.3525 9.10547 11.9561C9.06445 11.6143 8.95508 11.2383 8.77734 10.8281C8.59961 10.4043 8.3125 9.98047 7.91602 9.55664C7.51953 9.625 7.18457 9.67969 6.91113 9.7207C6.65137 9.74805 6.42578 9.77539 6.23438 9.80273C6.01562 9.83008 5.83789 9.85059 5.70117 9.86426C5.57812 9.87793 5.44141 9.8916 5.29102 9.90527C5.16797 9.91895 5.03125 9.93945 4.88086 9.9668C4.74414 9.98047 4.61426 10.001 4.49121 10.0283C4.46387 10.6162 4.46387 11.1289 4.49121 11.5664C4.51855 11.9902 4.55273 12.3457 4.59375 12.6328C4.64844 12.9746 4.70996 13.2686 4.77832 13.5146C4.84668 13.7607 4.94238 14 5.06543 14.2324C5.16113 14.4238 5.28418 14.6289 5.43457 14.8477C5.58496 15.0527 5.75586 15.2236 5.94727 15.3604C5.5918 15.3604 5.25 15.3604 4.92188 15.3604C4.60742 15.3604 4.32031 15.3535 4.06055 15.3398C3.75977 15.3398 3.47266 15.333 3.19922 15.3193C2.92578 15.3057 2.61816 15.2988 2.27637 15.2988C1.98926 15.2988 1.64746 15.2988 1.25098 15.2988C0.868164 15.2988 0.451172 15.3057 0 15.3193C0.355469 14.9502 0.635742 14.6357 0.84082 14.376C1.0459 14.1162 1.20312 13.8975 1.3125 13.7197C1.43555 13.5283 1.51074 13.3643 1.53809 13.2275C1.56543 13.0088 1.58594 12.6191 1.59961 12.0586C1.62695 11.4844 1.64746 10.8281 1.66113 10.0898C1.6748 9.35156 1.68164 8.5791 1.68164 7.77246C1.68164 6.96582 1.6748 6.21387 1.66113 5.5166C1.64746 4.80566 1.63379 4.19727 1.62012 3.69141C1.60645 3.18555 1.59277 2.86426 1.5791 2.72754C1.53809 2.48145 1.44922 2.23535 1.3125 1.98926C1.20312 1.77051 1.0459 1.52441 0.84082 1.25098C0.635742 0.977539 0.355469 0.704102 0 0.430664ZM7.75195 7.64941C7.88867 7.56738 8.00488 7.48535 8.10059 7.40332C8.19629 7.32129 8.27832 7.19141 8.34668 7.01367C8.41504 6.82227 8.46973 6.55566 8.51074 6.21387C8.56543 5.87207 8.62695 5.40723 8.69531 4.81934C8.75 4.23145 8.70898 3.74609 8.57227 3.36328C8.44922 2.98047 8.27832 2.67969 8.05957 2.46094C7.85449 2.22852 7.62207 2.07129 7.3623 1.98926C7.11621 1.89355 6.89746 1.8457 6.70605 1.8457C6.32324 1.8457 5.94727 1.96191 5.57812 2.19434C5.20898 2.42676 4.92871 2.74121 4.7373 3.1377C4.66895 3.31543 4.60742 3.60938 4.55273 4.01953C4.51172 4.375 4.48438 4.86719 4.4707 5.49609C4.45703 6.125 4.47754 6.95215 4.53223 7.97754C5.05176 8.05957 5.50977 8.09375 5.90625 8.08008C6.30273 8.05273 6.6377 8.00488 6.91113 7.93652C7.23926 7.86816 7.51953 7.77246 7.75195 7.64941Z" fill="#00FFFF"/>
</svg>
